<svg xmlns="http://www.w3.org/2000/svg" width="128" height="128" viewBox="-1 -10 100 110"><path d="M49.7 14.8L41.7 38.5h16l-8-23.8V14.8zM21.9 78c-0.5 0-0.9 0.4-0.9 0.9 0 0 0 0 0 0v10.2c0 0.5 0.4 0.9 0.9 0.9 0 0 0 0 0 0h55.5c0.5 0 0.9-0.4 0.9-0.9 0 0 0 0 0 0V79c0-0.5-0.4-0.9-0.9-0.9 0 0 0 0 0 0H21.9zM49.7 0.6c6.1 0 8 4.4 9.6 8.7l16.9 46.4c0.2 0.5-0.1 1-0.5 1.2l-9.2 3.5c-0.5 0.2-1-0.1-1.1-0.5 -0.2-0.4-3.6-9.9-4-10.9H38l-4 10.9c-0.2 0.5-0.7 0.7-1.1 0.5l-9.2-3.6c-0.5-0.2-0.7-0.7-0.5-1.2 0.6-1.6 16.1-44.2 16.9-46.4C41.6 5 43.7 0.6 49.7 0.6l0 0L49.7 0.6z" fill="#ef3124"/></svg>